<svg width="446" height="355" viewBox="0 0 446 355" fill="none" xmlns="http://www.w3.org/2000/svg">
<path fill-rule="evenodd" clip-rule="evenodd" d="M445.581 176.355C445.581 273.754 366.624 352.711 269.225 352.711C232.564 352.711 198.515 341.524 170.306 322.377C170.644 320.311 170.82 318.19 170.82 316.027L170.851 259.281C194.441 286.973 229.567 304.536 268.795 304.536C339.825 304.536 397.406 246.955 397.406 175.925C397.406 104.896 339.825 47.3148 268.795 47.3148C215.862 47.3148 170.397 79.2938 150.667 124.986C146.016 119.922 140.694 115.486 134.841 111.82C128.122 107.599 123.211 100.707 123.21 92.7816L123.209 77.4274C154.93 30.6997 208.492 0 269.225 0C366.624 0 445.581 78.957 445.581 176.355ZM268.795 276.147C220.825 276.147 180.726 242.444 170.885 197.426L170.897 176.991C170.896 171.962 170.414 167.046 169.494 162.286C176.148 113.387 218.071 75.7038 268.795 75.7038C324.146 75.7038 369.017 120.574 369.017 175.925C369.017 231.276 324.146 276.147 268.795 276.147ZM49.3492 3.61871C38.5812 3.618 29.8381 12.3611 29.8388 23.1291C29.7964 33.3372 37.6361 41.6936 47.6289 42.5557L47.6294 50.7394L47.6322 92.7778C47.6327 100.617 42.7229 107.594 36.0471 111.772C14.4258 125.381 -0.00180418 149.458 1.69224e-07 176.938L0.0522081 316.017C0.0536234 337.553 17.499 354.999 39.035 355L114.842 355.005C136.378 355.006 153.821 337.563 153.82 316.027L153.897 176.991C153.895 149.511 139.507 125.389 117.841 111.82C111.121 107.599 106.211 100.707 106.21 92.7816L106.207 50.7433L106.207 42.5596C116.156 41.7419 123.995 33.3003 123.994 23.1353C123.994 12.3672 115.249 3.62303 104.481 3.62232L49.3492 3.61871ZM105.061 295.35L48.7223 295.346C43.3814 295.345 38.9877 290.952 38.9874 285.611L38.9818 201.706C38.9815 196.366 43.3746 191.972 48.7155 191.973L105.054 191.977C110.395 191.977 114.788 196.371 114.789 201.711L114.794 285.616C114.795 290.957 110.402 295.35 105.061 295.35Z" fill="#4CAF50"/>
</svg>
