<svg width="446" height="355" viewBox="0 0 446 355" fill="none" xmlns="http://www.w3.org/2000/svg">
<path fill-rule="evenodd" clip-rule="evenodd" d="M445.58 176.355C445.58 273.754 366.623 352.711 269.225 352.711C232.563 352.711 198.514 341.524 170.306 322.377C170.644 320.311 170.82 318.19 170.819 316.027L170.851 259.281C194.441 286.973 229.567 304.536 268.795 304.536C339.824 304.536 397.405 246.955 397.405 175.925C397.405 104.896 339.824 47.3149 268.795 47.3149C215.861 47.3149 170.397 79.2938 150.667 124.986C146.016 119.922 140.694 115.486 134.841 111.82C128.121 107.599 123.211 100.707 123.21 92.7816L123.209 77.4274C154.93 30.6997 208.492 0 269.225 0C366.623 0 445.58 78.957 445.58 176.355ZM268.795 276.147C220.824 276.147 180.726 242.444 170.885 197.426L170.896 176.991C170.896 171.962 170.414 167.046 169.494 162.286C176.148 113.387 218.071 75.7038 268.795 75.7038C324.146 75.7038 369.016 120.574 369.016 175.925C369.016 231.276 324.146 276.147 268.795 276.147ZM93.552 191.976L48.7155 191.973C43.3746 191.972 38.9815 196.366 38.9819 201.706L38.9874 285.611C38.9877 290.952 43.3814 295.345 48.7223 295.346L105.061 295.35C110.401 295.35 114.795 290.957 114.794 285.616L114.793 261.58C103.201 240.621 95.7527 217.051 93.552 191.976ZM49.3492 3.6187C38.5812 3.61799 29.8381 12.3611 29.8388 23.1291C29.7964 33.3372 37.6361 41.6936 47.6289 42.5557L47.6294 50.7394L47.6322 92.7778C47.6327 100.617 42.7229 107.594 36.0471 111.772C14.4258 125.381 -0.00180466 149.458 1.69312e-07 176.937L0.0522077 316.017C0.0536228 337.553 17.499 354.999 39.035 355L114.842 355.005C136.378 355.006 153.821 337.563 153.82 316.027L153.897 176.991C153.895 149.511 139.507 125.389 117.841 111.82C111.121 107.599 106.211 100.707 106.21 92.7816L106.207 50.7433L106.207 42.5596C116.156 41.7419 123.995 33.3003 123.994 23.1353C123.994 12.3672 115.249 3.62303 104.481 3.62232L49.3492 3.6187Z" fill="#4CAF50"/>
</svg>
